<svg width="274" height="39" viewBox="0 0 274 39" fill="none" xmlns="http://www.w3.org/2000/svg">
<path d="M125.438 1L121.66 5.08203H115.125C112.844 5.08203 111 6.91016 111 9.16797V33.668C111 35.9219 112.844 37.75 115.125 37.75H148.125C150.402 37.75 152.25 35.9219 152.25 33.668V9.16797C152.25 6.91016 150.402 5.08203 148.125 5.08203H141.586L137.812 1H125.438ZM131.625 31.625C125.93 31.625 121.312 27.0508 121.312 21.418C121.312 15.7812 125.93 11.207 131.625 11.207C137.316 11.207 141.938 15.7812 141.938 21.418C141.938 27.0508 137.316 31.625 131.625 31.625Z" fill="#40C2CA"/>
<path d="M138.223 21.418C138.223 21.8437 138.18 22.2695 138.098 22.6914C138.012 23.1133 137.887 23.5195 137.723 23.918C137.555 24.3125 137.352 24.6875 137.109 25.0469C136.871 25.4023 136.598 25.7344 136.289 26.0352C135.984 26.3398 135.652 26.6094 135.289 26.8477C134.93 27.0859 134.551 27.2891 134.148 27.4531C133.75 27.6172 133.336 27.7422 132.91 27.8242C132.484 27.9062 132.059 27.9492 131.625 27.9492C131.191 27.9492 130.762 27.9062 130.336 27.8242C129.91 27.7422 129.5 27.6172 129.098 27.4531C128.699 27.2891 128.316 27.0859 127.957 26.8477C127.598 26.6094 127.262 26.3398 126.957 26.0352C126.648 25.7344 126.375 25.4023 126.137 25.0469C125.895 24.6875 125.691 24.3125 125.527 23.918C125.359 23.5195 125.234 23.1133 125.148 22.6914C125.066 22.2695 125.023 21.8437 125.023 21.418C125.023 20.9883 125.066 20.5625 125.148 20.1406C125.234 19.7227 125.359 19.3125 125.527 18.918C125.691 18.5195 125.895 18.1445 126.137 17.7852C126.375 17.4297 126.648 17.1016 126.957 16.7969C127.262 16.4922 127.598 16.2227 127.957 15.9844C128.316 15.7461 128.699 15.543 129.098 15.3789C129.5 15.2148 129.91 15.0938 130.336 15.0078C130.762 14.9258 131.191 14.8828 131.625 14.8828C132.059 14.8828 132.484 14.9258 132.91 15.0078C133.336 15.0938 133.75 15.2148 134.148 15.3789C134.551 15.543 134.93 15.7461 135.289 15.9844C135.652 16.2227 135.984 16.4922 136.289 16.7969C136.598 17.1016 136.871 17.4297 137.109 17.7852C137.352 18.1445 137.555 18.5195 137.723 18.918C137.887 19.3125 138.012 19.7227 138.098 20.1406C138.18 20.5625 138.223 20.9883 138.223 21.418Z" fill="#40C2CA"/>
<path d="M27.3125 16.3926C27.3125 17.8451 27.0954 19.1328 26.6611 20.2559C26.2269 21.3789 25.6279 22.3597 24.8643 23.1982C24.1156 24.0368 23.2321 24.748 22.2139 25.332C21.1956 25.916 20.1025 26.3952 18.9346 26.7695C17.7816 27.1289 16.5837 27.3984 15.3408 27.5781C14.098 27.7428 12.8776 27.8327 11.6797 27.8477V38.3145H1.21289C1.21289 34.8854 1.22038 31.4714 1.23535 28.0723C1.25033 24.6732 1.27279 21.2441 1.30273 17.7852C1.33268 15.9583 1.34017 14.1315 1.3252 12.3047C1.31022 10.4779 1.34766 8.63607 1.4375 6.7793C3.35417 6.21029 5.27083 5.78353 7.1875 5.49902C9.10417 5.21452 11.0807 5.07227 13.1172 5.07227C14.2702 5.07227 15.4232 5.1696 16.5762 5.36426C17.7292 5.54395 18.8298 5.83594 19.8779 6.24023C20.9411 6.64453 21.9219 7.15365 22.8203 7.76758C23.7337 8.36654 24.5199 9.08529 25.1787 9.92383C25.8376 10.7624 26.3542 11.7207 26.7285 12.7988C27.1178 13.862 27.3125 15.0599 27.3125 16.3926ZM17.3398 17.1562C17.3398 16.1829 17.0404 15.4268 16.4414 14.8877C15.8574 14.3337 15.0938 14.0566 14.1504 14.0566C13.8359 14.0566 13.5065 14.0866 13.1621 14.1465C12.8327 14.1914 12.5182 14.2513 12.2188 14.3262L11.9492 20.8848C12.1589 20.9147 12.361 20.9297 12.5557 20.9297C12.7503 20.9297 12.9525 20.9297 13.1621 20.9297C13.7012 20.9297 14.2178 20.8398 14.7119 20.6602C15.221 20.4805 15.6702 20.2259 16.0596 19.8965C16.4489 19.5521 16.7559 19.1553 16.9805 18.7061C17.2201 18.2419 17.3398 17.7253 17.3398 17.1562ZM56.3096 20.7949C56.3096 22.1576 56.1523 23.4753 55.8379 24.748C55.5234 26.0059 55.0667 27.1888 54.4678 28.2969C53.8838 29.4049 53.165 30.4232 52.3115 31.3516C51.473 32.265 50.5221 33.0511 49.459 33.71C48.4108 34.3688 47.2653 34.8854 46.0225 35.2598C44.7796 35.6191 43.4619 35.7988 42.0693 35.7988C40.7217 35.7988 39.4339 35.6266 38.2061 35.2822C36.9932 34.9378 35.8551 34.4587 34.792 33.8447C33.7288 33.2158 32.763 32.4671 31.8945 31.5986C31.041 30.7152 30.3073 29.7419 29.6934 28.6787C29.0944 27.6006 28.6227 26.4476 28.2783 25.2197C27.9489 23.9919 27.7842 22.7116 27.7842 21.3789C27.7842 20.0762 27.9414 18.8034 28.2559 17.5605C28.5703 16.3027 29.0195 15.1198 29.6035 14.0117C30.2025 12.9036 30.9212 11.8854 31.7598 10.957C32.5983 10.0286 33.5342 9.22754 34.5674 8.55371C35.6156 7.87988 36.7461 7.35579 37.959 6.98145C39.1719 6.6071 40.4521 6.41992 41.7998 6.41992C43.971 6.41992 45.9476 6.75684 47.7295 7.43066C49.5264 8.10449 51.0537 9.07031 52.3115 10.3281C53.5843 11.571 54.5651 13.0833 55.2539 14.8652C55.9577 16.6322 56.3096 18.6087 56.3096 20.7949ZM46.3369 21.3789C46.3369 20.735 46.2396 20.1136 46.0449 19.5146C45.8652 18.9007 45.5957 18.3617 45.2363 17.8975C44.877 17.4183 44.4277 17.0365 43.8887 16.752C43.3646 16.4525 42.7581 16.3027 42.0693 16.3027C41.3656 16.3027 40.7367 16.43 40.1826 16.6846C39.6286 16.9391 39.1494 17.291 38.7451 17.7402C38.3558 18.1745 38.0563 18.6911 37.8467 19.29C37.637 19.874 37.5322 20.4954 37.5322 21.1543C37.5322 21.7832 37.6221 22.4121 37.8018 23.041C37.9814 23.6699 38.251 24.2389 38.6104 24.748C38.9697 25.2572 39.4115 25.6689 39.9355 25.9834C40.4746 26.2979 41.096 26.4551 41.7998 26.4551C42.5036 26.4551 43.1325 26.3203 43.6865 26.0508C44.2555 25.7663 44.7347 25.3919 45.124 24.9277C45.5133 24.4486 45.8128 23.902 46.0225 23.2881C46.2321 22.6742 46.3369 22.0378 46.3369 21.3789ZM85.6436 20.7949C85.6436 22.1576 85.4863 23.4753 85.1719 24.748C84.8574 26.0059 84.4007 27.1888 83.8018 28.2969C83.2178 29.4049 82.499 30.4232 81.6455 31.3516C80.807 32.265 79.8561 33.0511 78.793 33.71C77.7448 34.3688 76.5993 34.8854 75.3564 35.2598C74.1136 35.6191 72.7959 35.7988 71.4033 35.7988C70.0557 35.7988 68.7679 35.6266 67.54 35.2822C66.3271 34.9378 65.1891 34.4587 64.126 33.8447C63.0628 33.2158 62.097 32.4671 61.2285 31.5986C60.375 30.7152 59.6413 29.7419 59.0273 28.6787C58.4284 27.6006 57.9567 26.4476 57.6123 25.2197C57.2829 23.9919 57.1182 22.7116 57.1182 21.3789C57.1182 20.0762 57.2754 18.8034 57.5898 17.5605C57.9043 16.3027 58.3535 15.1198 58.9375 14.0117C59.5365 12.9036 60.2552 11.8854 61.0938 10.957C61.9323 10.0286 62.8682 9.22754 63.9014 8.55371C64.9495 7.87988 66.0801 7.35579 67.293 6.98145C68.5059 6.6071 69.7861 6.41992 71.1338 6.41992C73.305 6.41992 75.2816 6.75684 77.0635 7.43066C78.8604 8.10449 80.3877 9.07031 81.6455 10.3281C82.9183 11.571 83.8991 13.0833 84.5879 14.8652C85.2917 16.6322 85.6436 18.6087 85.6436 20.7949ZM75.6709 21.3789C75.6709 20.735 75.5736 20.1136 75.3789 19.5146C75.1992 18.9007 74.9297 18.3617 74.5703 17.8975C74.2109 17.4183 73.7617 17.0365 73.2227 16.752C72.6986 16.4525 72.0921 16.3027 71.4033 16.3027C70.6995 16.3027 70.0706 16.43 69.5166 16.6846C68.9626 16.9391 68.4834 17.291 68.0791 17.7402C67.6898 18.1745 67.3903 18.6911 67.1807 19.29C66.971 19.874 66.8662 20.4954 66.8662 21.1543C66.8662 21.7832 66.9561 22.4121 67.1357 23.041C67.3154 23.6699 67.585 24.2389 67.9443 24.748C68.3037 25.2572 68.7454 25.6689 69.2695 25.9834C69.8086 26.2979 70.43 26.4551 71.1338 26.4551C71.8376 26.4551 72.4665 26.3203 73.0205 26.0508C73.5895 25.7663 74.0687 25.3919 74.458 24.9277C74.8473 24.4486 75.1468 23.902 75.3564 23.2881C75.5661 22.6742 75.6709 22.0378 75.6709 21.3789ZM106.914 26.0957L105.971 36.0684L87.0586 37.5508L87.7773 5.47656H99.457L97.7949 26.0957H106.914Z" fill="black"/>
<path d="M181.195 25.5312C181.195 27.6719 180.82 29.5469 180.07 31.1562C179.336 32.75 178.32 34.0781 177.023 35.1406C175.742 36.2031 174.234 37 172.5 37.5312C170.781 38.0625 168.93 38.3281 166.945 38.3281C166.18 38.3281 165.336 38.2266 164.414 38.0234C163.508 37.8203 162.586 37.5703 161.648 37.2734C160.711 36.9609 159.805 36.6328 158.93 36.2891C158.07 35.9297 157.305 35.5938 156.633 35.2812L157.664 25.625C158.992 26.4219 160.461 27.0312 162.07 27.4531C163.695 27.8594 165.289 28.0625 166.852 28.0625C167.148 28.0625 167.508 28.0547 167.93 28.0391C168.352 28.0078 168.75 27.9375 169.125 27.8281C169.516 27.7031 169.844 27.5234 170.109 27.2891C170.375 27.0547 170.508 26.7188 170.508 26.2812C170.508 25.9844 170.414 25.7344 170.227 25.5312C170.039 25.3125 169.797 25.1406 169.5 25.0156C169.203 24.875 168.867 24.7734 168.492 24.7109C168.117 24.6328 167.75 24.5781 167.391 24.5469C167.031 24.5156 166.695 24.5 166.383 24.5C166.07 24.5 165.82 24.5 165.633 24.5C164.289 24.5 163.062 24.2656 161.953 23.7969C160.859 23.3281 159.914 22.6797 159.117 21.8516C158.336 21.0078 157.727 20.0156 157.289 18.875C156.852 17.7188 156.633 16.4688 156.633 15.125C156.633 13.2812 157 11.6328 157.734 10.1797C158.484 8.71094 159.477 7.46875 160.711 6.45312C161.961 5.42188 163.391 4.63281 165 4.08594C166.609 3.53906 168.273 3.26562 169.992 3.26562C170.758 3.26562 171.547 3.29687 172.359 3.35938C173.172 3.40625 173.977 3.5 174.773 3.64062C175.586 3.78125 176.375 3.96094 177.141 4.17969C177.906 4.39844 178.633 4.67188 179.32 5L178.43 14.5156C177.367 14.1562 176.25 13.8594 175.078 13.625C173.922 13.375 172.789 13.25 171.68 13.25C171.477 13.25 171.211 13.2578 170.883 13.2734C170.57 13.2734 170.234 13.2969 169.875 13.3438C169.531 13.375 169.18 13.4297 168.82 13.5078C168.461 13.5859 168.141 13.6953 167.859 13.8359C167.578 13.9609 167.352 14.1328 167.18 14.3516C167.008 14.5703 166.93 14.8281 166.945 15.125C166.961 15.4688 167.086 15.75 167.32 15.9688C167.57 16.1719 167.883 16.3359 168.258 16.4609C168.648 16.5703 169.07 16.6484 169.523 16.6953C169.992 16.7422 170.453 16.7734 170.906 16.7891C171.359 16.7891 171.781 16.7891 172.172 16.7891C172.562 16.7734 172.883 16.7812 173.133 16.8125C174.383 16.8906 175.508 17.1562 176.508 17.6094C177.508 18.0625 178.352 18.6641 179.039 19.4141C179.742 20.1641 180.273 21.0625 180.633 22.1094C181.008 23.1406 181.195 24.2812 181.195 25.5312ZM214.57 4.39062L212.883 36.1719L200.602 37.2969L194.039 20.2812L193.008 37.625H182.461L183.305 4.39062L195.023 3.82812L203.133 20.7031L203.508 4.76562L214.57 4.39062ZM245.625 35.9844L234 37.4844L232.594 32.1875H227.25L226.078 37.4844L214.125 36.3125L223.453 5.09375L236.484 4.4375L245.625 35.9844ZM231.75 25.0156L229.969 16.8594L228.234 25.0156H231.75ZM273.422 15.4531C273.422 16.9688 273.195 18.3125 272.742 19.4844C272.289 20.6562 271.664 21.6797 270.867 22.5547C270.086 23.4297 269.164 24.1719 268.102 24.7812C267.039 25.3906 265.898 25.8906 264.68 26.2812C263.477 26.6562 262.227 26.9375 260.93 27.125C259.633 27.2969 258.359 27.3906 257.109 27.4062V38.3281H246.188C246.188 34.75 246.195 31.1875 246.211 27.6406C246.227 24.0938 246.25 20.5156 246.281 16.9062C246.312 15 246.32 13.0937 246.305 11.1875C246.289 9.28125 246.328 7.35938 246.422 5.42188C248.422 4.82813 250.422 4.38281 252.422 4.08594C254.422 3.78906 256.484 3.64062 258.609 3.64062C259.812 3.64062 261.016 3.74219 262.219 3.94531C263.422 4.13281 264.57 4.4375 265.664 4.85938C266.773 5.28125 267.797 5.8125 268.734 6.45312C269.688 7.07813 270.508 7.82813 271.195 8.70312C271.883 9.57812 272.422 10.5781 272.812 11.7031C273.219 12.8125 273.422 14.0625 273.422 15.4531ZM263.016 16.25C263.016 15.2344 262.703 14.4453 262.078 13.8828C261.469 13.3047 260.672 13.0156 259.688 13.0156C259.359 13.0156 259.016 13.0469 258.656 13.1094C258.312 13.1562 257.984 13.2188 257.672 13.2969L257.391 20.1406C257.609 20.1719 257.82 20.1875 258.023 20.1875C258.227 20.1875 258.438 20.1875 258.656 20.1875C259.219 20.1875 259.758 20.0938 260.273 19.9062C260.805 19.7188 261.273 19.4531 261.68 19.1094C262.086 18.75 262.406 18.3359 262.641 17.8672C262.891 17.3828 263.016 16.8438 263.016 16.25Z" fill="black"/>
</svg>
